<?xml version="1.0" encoding="utf-8"?>
<!-- Generator: Adobe Illustrator 28.0.0, SVG Export Plug-In . SVG Version: 6.00 Build 0)  -->
<svg version="1.1" id="Vrstva_1" xmlns="http://www.w3.org/2000/svg" xmlns:xlink="http://www.w3.org/1999/xlink" x="0px" y="0px"
	 width="264px" height="161px" viewBox="0 0 264 161" enable-background="new 0 0 264 161" xml:space="preserve">
<g>
	<g>
		<path d="M47.71445,74.57285c4.58426,0.55945,8.90384,3.46863,11.44092,7.27734c2.24361,3.36815,4.56006,9.68135,0.46364,12.53474
			c-1.83924,1.28113-4.23358,1.73373-6.42651,1.92912c-2.60558,0.23214-5.25259,0.22205-7.86431,0.11459
			c-5.27253-0.21691-10.73611-1.06983-15.4328-3.60278c-5.00805-2.70088-8.28013-7.19289-10.4177-12.38489
			c-2.50855-6.09308-4.03843-12.698-5.06276-19.19048c-0.87713-5.55949-1.43822-11.41602,1.8928-16.28811
			c2.51567-3.67953,6.69913-6.06444,10.90619-7.27793c13.04929-3.76397,25.69263,4.24535,36.29864,10.89434
			c2.73418,1.71408,5.24658-2.61029,2.5236-4.31735c-11.31643-7.09436-24.2502-14.80056-38.15797-11.89211
			c-5.36301,1.12153-10.71147,3.8227-14.31467,8.02435c-1.84184,2.14775-3.26351,4.6133-4.05097,7.34108
			c-1.01969,3.53223-0.90646,7.2747-0.47064,10.8872c0.89872,7.44953,2.4995,14.94456,5.15569,21.97639
			c2.40171,6.35815,5.99214,12.14016,11.87633,15.79361c5.39134,3.34743,11.82674,4.60346,18.08106,4.97769
			c5.638,0.33736,12.38007,0.58791,17.4435-2.33041c6.88289-3.96698,5.96796-12.82488,2.43518-18.81848
			c-3.48463-5.91191-9.53839-9.82041-16.3192-10.64792c-1.34246-0.16383-2.5,1.2663-2.5,2.5
			C45.21445,73.56016,46.36806,74.40853,47.71445,74.57285L47.71445,74.57285z"/>
	</g>
</g>
<g>
	<g>
		<path d="M75.54811,41.42895c-10.29386,5.32467-10.20098,19.56097-9.97507,29.50447
			c0.28637,12.60452,2.42177,25.34348,7.9592,36.76085c1.3162,2.7138,2.8116,5.39233,4.57592,7.84316
			c1.82452,2.53445,4.5409,4.86458,7.88503,3.8714c2.68063-0.79612,4.98473-3.5559,6.64496-5.68746
			c1.8304-2.35006,3.24432-4.90613,4.39214-7.65061c2.16535-5.17745,3.20126-10.69974,3.93679-16.23821
			c0.83748-6.30625,1.60201-12.75888,1.47674-19.12746c-0.14172-7.20567-1.76679-14.31613-6.36279-20.01445
			c-3.90459-4.84106-9.90108-8.27747-16.25579-7.79589c-1.34645,0.10204-2.5,1.07598-2.5,2.5c0,1.27378,1.14629,2.60259,2.5,2.5
			c4.69402-0.35572,8.81049,1.92936,11.88805,5.35221c3.52887,3.92479,5.12954,9.10276,5.56938,14.28469
			c0.50366,5.93368-0.15813,11.91513-0.78389,17.81419c-0.51937,4.89608-1.20756,9.79802-2.57889,14.53754
			c-1.30512,4.51073-3.3,8.91999-6.56896,12.35662c-0.70552,0.74171-1.58071,1.78981-2.52306,2.24084
			c-0.86829,0.41557-1.5368-0.42412-2.10013-1.08947c-1.67137-1.97404-2.95008-4.45383-4.13528-6.74001
			c-5.05995-9.76034-7.25554-20.81214-7.86365-31.71782c-0.31915-5.72339-0.54872-11.74268,0.42798-17.41706
			c0.79943-4.64445,2.48259-9.47749,6.91491-11.77018C80.93072,44.26743,78.4048,39.95128,75.54811,41.42895L75.54811,41.42895z"/>
	</g>
</g>
<g>
	<g>
		<path d="M135.77496,56.16943c-4.48434-1.42413-8.9687-2.84827-13.45304-4.27241c-3.91351-1.24285-8.72343-3.52577-12.1947-0.09855
			c-2.57979,2.54706-3.24245,6.93324-3.799,10.35205c-0.64919,3.98792-0.73871,8.14119,1.19598,11.81175
			c2.88515,5.4738,9.15672,7.11514,14.24348,9.78052c1.05473,0.55267,2.31151,1.29494,2.98298,1.91102
			c0.90183,0.82742,1.56178,1.618,1.91789,2.4884c0.63081,1.54183-0.01749,1.82516-1.43339,2.32677
			c-1.44929,0.51344-2.965,0.87226-4.49957,0.9889c-6.92834,0.52662-14.12046-2.6088-17.93761-8.51929
			c-1.7398-2.69392-6.06994-0.19012-4.31735,2.5236c3.85921,5.97562,10.30163,9.86095,17.32153,10.80894
			c6.09383,0.82294,19.31739-0.84003,15.45756-10.01749c-2.42017-5.75439-8.75593-7.46562-13.84116-10.05937
			c-2.51638-1.2835-4.76225-2.69576-5.8365-5.28066c-1.38519-3.33311-0.56384-7.27603,0.21594-10.64924
			c0.35675-1.54324,0.62927-3.60262,1.75562-4.81415c1.22216-1.31458,3.88632,0.13992,5.31493,0.59361
			c5.19241,1.649,10.3848,3.298,15.57722,4.947C137.51971,61.96704,138.83542,57.14137,135.77496,56.16943L135.77496,56.16943z"/>
	</g>
</g>
<g>
	<g>
		<path d="M130.48373,56.31206c2.01241,16.44802,5.47351,32.69089,10.48053,48.49063
			c1.42383,4.4929,2.97189,8.94511,4.63129,13.35632c0.47513,1.26303,1.68852,2.1272,3.0753,1.7461
			c1.21204-0.33308,2.22395-1.80501,1.74609-3.07529c-5.72578-15.22096-10.05962-30.95459-12.89998-46.96793
			c-0.79781-4.49786-1.47847-9.01559-2.03323-13.54983c-0.16394-1.33997-1.03166-2.5-2.5-2.5
			C131.75995,53.81206,130.31865,54.96272,130.48373,56.31206L130.48373,56.31206z"/>
	</g>
</g>
<g>
	<g>
		<path d="M156.02405,68.92144c-0.88672,11.41138,0.94423,23.01347,5.33208,33.58564c0.5172,1.24613,1.65735,2.13577,3.0753,1.7461
			c1.17725-0.32352,2.26691-1.82047,1.74609-3.0753c-4.24173-10.2201-6.01077-21.22372-5.15347-32.25644
			c0.10472-1.3478-1.22398-2.5-2.5-2.5C157.08415,66.42144,156.12907,67.56977,156.02405,68.92144L156.02405,68.92144z"/>
	</g>
</g>
<g>
	<g>
		<path d="M132.28819,84.9974c10.39989,0.98168,20.99849-0.35826,30.83034-3.88686c1.27022-0.45587,2.12331-1.7027,1.74609-3.07529
			c-0.33742-1.22781-1.7984-2.20437-3.0753-1.74609c-9.4687,3.39826-19.48586,4.65363-29.50113,3.70824
			c-1.34608-0.12707-2.5,1.23997-2.5,2.5C129.78819,83.9552,130.93826,84.86997,132.28819,84.9974L132.28819,84.9974z"/>
	</g>
</g>
<g>
	<g>
		<path d="M182.55197,59.70888c-8.16618-2.25911-17.23393,2.26654-20.5107,10.03626
			c-3.49037,8.27625-0.31349,18.00648,6.89685,23.13166c6.86699,4.8811,18.15527,5.59013,24.54848-0.52225
			c3.49776-3.34412,4.41049-8.65496,5.15375-13.22459c0.80478-4.94802,0.90198-10.14009-1.60658-14.64973
			c-2.30719-4.14764-6.59386-7.38415-11.30446-8.18356c-5.16309-0.87621-10.3401,0.62436-14.23996,4.12027
			c-2.40105,2.15236,1.14459,5.67883,3.53554,3.53553c4.90302-4.39518,12.6584-3.68568,16.69228,1.50766
			c2.29456,2.9541,2.67918,6.65334,2.36372,10.27252c-0.17854,2.04836-0.60666,4.07355-1.0502,6.07848
			c-0.40108,1.81295-0.8212,3.67974-1.75484,5.30383c-3.31009,5.75799-12.40535,5.44421-17.5793,2.7981
			c-5.77505-2.95353-9.21933-9.47411-7.78802-15.9287c1.49031-6.72067,8.57112-11.31952,15.31424-9.45409
			C184.32864,65.38948,185.65404,60.56704,182.55197,59.70888L182.55197,59.70888z"/>
	</g>
</g>
<g>
	<g>
		<path d="M192.87505,65.9424c1.24966,0.4678,2.1841,2.6854,2.83733,3.70682c1.14192,1.78558,2.25964,3.58669,3.35239,5.40279
			c2.1465,3.56738,4.1981,7.19175,6.15175,10.86828c3.94756,7.42889,7.50624,15.06821,10.61224,22.88688
			c1.76082,4.43245,3.38153,8.91885,4.87218,13.44919c1.52313-0.64213,3.04625-1.28426,4.56938-1.9264
			c-0.44846-1.02144-0.89691-2.04288-1.34537-3.06432c-0.54285-1.23647-2.35086-1.52251-3.42047-0.89688
			c-1.27539,0.74598-1.44182,2.17924-0.89688,3.42047c0.44846,1.02145,0.89691,2.04288,1.34537,3.06432
			c1.13663,2.58891,5.4491,0.74723,4.56937-1.9264c-5.57936-16.95657-13.03714-33.3056-22.25749-48.5932
			c-1.29013-2.13906-2.61444-4.25751-3.97256-6.35406c-1.35408-2.09031-2.67229-3.95459-5.08803-4.85889
			c-1.26471-0.47343-2.74037,0.52718-3.07529,1.7461C190.74396,64.26821,191.60574,65.46725,192.87505,65.9424L192.87505,65.9424z"
			/>
	</g>
</g>
<g>
	<g>
		<path d="M201.18634,51.44524c3.63142-5.4783,8.64561-9.93174,14.44243-13.0136c2.86681-1.52414,5.90584-2.66649,9.06184-3.42961
			c2.89326-0.69958,6.0282-1.09349,8.91129-0.14072c3.13774,1.03692,4.35384,4.11771,5.45135,6.95939
			c1.51512,3.9229,2.91768,7.88927,4.20535,11.8926c1.2634,3.92778,2.41632,7.89113,3.45683,11.88374
			c0.47499,1.8226,1.12737,3.7245,1.34369,5.5976c0.17415,1.50784-0.56882,2.33727-1.79774,3.10191
			c-3.50505,2.18081-7.58044,3.67236-11.51836,4.84973c-4.24405,1.26891-8.60028,2.07486-13.01849,2.3858
			c-1.34702,0.0948-2.5,1.08115-2.5,2.5c0,1.27962,1.14594,2.59529,2.5,2.5c8.91034-0.62708,17.61658-2.99151,25.56371-7.08777
			c1.75555-0.90488,3.44426-1.99412,4.59581-3.63491c1.37108-1.95359,1.345-4.30257,0.88347-6.54971
			c-0.91635-4.46172-2.23418-8.88347-3.55273-13.24001c-1.33313-4.40471-2.80446-8.76765-4.41122-13.08009
			c-1.4827-3.97947-2.81667-8.41982-6.34526-11.08712c-6.27705-4.74489-15.537-2.10422-22.06303,0.691
			c-7.95039,3.4053-14.75409,9.17894-19.52629,16.37817C195.08607,51.61131,199.41454,54.11814,201.18634,51.44524
			L201.18634,51.44524z"/>
	</g>
</g>
<g>
	<g>
		<path d="M197.51405,41.76453c-3.03391,3.41822-4.72736,7.97338-4.40881,12.56153c0.09038,1.30182,1.08513,2.56337,2.5,2.5
			c1.2769-0.05719,2.597-1.10283,2.5-2.5c-0.03232-0.46539-0.04689-0.93096-0.03563-1.39746
			c0.00563-0.23293,0.01701-0.46572,0.03401-0.6981c0.01324-0.18107-0.01764-0.53589,0.06786-0.69566
			c-0.05246,0.37563-0.05795,0.42409-0.01649,0.14537c0.01825-0.1151,0.03786-0.22997,0.05884-0.3446
			c0.04196-0.22929,0.08939-0.45758,0.14215-0.68463c0.10555-0.45418,0.23256-0.90338,0.38031-1.34564
			c0.07387-0.22114,0.15294-0.44055,0.23712-0.65798c0.0421-0.10872,0.08545-0.21692,0.13008-0.32462
			c-0.13934,0.32843-0.15356,0.36719-0.04268,0.11627c0.20619-0.41912,0.40639-0.83767,0.64011-1.24277
			c0.23288-0.40365,0.48508-0.79618,0.75591-1.17542c0.0677-0.09482,0.13657-0.18879,0.20659-0.28191
			c-0.21436,0.27427-0.23706,0.30522-0.06808,0.09283c0.15128-0.17759,0.29935-0.35715,0.45427-0.53169
			c0.86775-0.97768,1.03537-2.58508,0-3.53553C200.10051,40.8933,198.44113,40.72002,197.51405,41.76453L197.51405,41.76453z"/>
	</g>
</g>
<g>
	<g>
		<path d="M220.14914,83.16869c-5.88663,0.95979-11.88681,1.15599-17.83099,0.70399c-1.34795-0.1025-2.5,1.22239-2.5,2.5
			c0,1.4381,1.14818,2.3972,2.5,2.5c6.40964,0.48739,12.81871,0.15136,19.1602-0.8826
			c1.33362-0.21745,2.07635-1.87355,1.74609-3.0753C222.83498,83.49759,221.48668,82.95061,220.14914,83.16869L220.14914,83.16869z"
			/>
	</g>
</g>
<g>
	<g>
		<path d="M184.55582,74.26929c0.34207,0.01859,0.69473-0.03918,1.02499-0.1231c0.31615-0.08034,0.62375-0.21824,0.90762-0.37679
			c0.05634-0.03147,0.10979-0.06719,0.16171-0.10542c0.20898-0.15381,0.42593-0.30849,0.61821-0.48398
			c0.24324-0.22201,0.4389-0.50719,0.62433-0.77232c0.1879-0.26869,0.30728-0.61974,0.4221-0.90784
			c0.04518-0.11334,0.07672-0.22871,0.09605-0.34921c0.04782-0.29824,0.12894-0.67456,0.09372-0.99901
			c-0.02895-0.26663-0.04872-0.56171-0.12152-0.82976c-0.07121-0.26219-0.20505-0.51541-0.30905-0.75835
			c-0.1571-0.29134-0.37173-0.52515-0.64389-0.70142c-0.24147-0.22097-0.52486-0.37012-0.85019-0.44747
			c-0.33231-0.10419-0.6646-0.11907-0.9969-0.04465c-0.3327,0.01509-0.64253,0.11398-0.92949,0.29667
			c-0.16867,0.13031-0.33733,0.26061-0.50598,0.39091c-0.30983,0.31193-0.52414,0.67966-0.64293,1.10316
			c-0.02977,0.22153-0.05952,0.44307-0.08929,0.6646c0.0014,0.45126,0.11517,0.87186,0.34132,1.2618
			c0.00323,0.00757,0.00647,0.01513,0.00972,0.0227c-0.08401-0.19907-0.16801-0.39813-0.25203-0.5972
			c0.03647,0.09056,0.06168,0.18334,0.0764,0.27984c-0.02977-0.22153-0.05954-0.44306-0.08931-0.6646
			c0.01581,0.11971,0.01472,0.23856-0.00128,0.35818c0.02977-0.22153,0.05954-0.44307,0.08931-0.6646
			c-0.01949,0.12843-0.05524,0.25197-0.10548,0.3717c0.084-0.19907,0.16801-0.39813,0.25201-0.5972
			c-0.05595,0.12769-0.12668,0.24667-0.21162,0.35719c0.13029-0.16866,0.2606-0.33731,0.39091-0.50597
			c-0.0813,0.10252-0.1727,0.19456-0.27541,0.27567c0.16866-0.1303,0.33731-0.2606,0.50597-0.39091
			c-0.09634,0.07359-0.19904,0.13509-0.31021,0.18356c0.19907-0.08401,0.39813-0.16801,0.5972-0.25202
			c-0.10408,0.04313-0.21098,0.07288-0.32263,0.08831c0.22153-0.02977,0.44307-0.05953,0.6646-0.0893
			c-0.07298,0.00854-0.14558,0.01083-0.21896,0.00684c-0.34419-0.01299-0.66525,0.05879-0.9632,0.21532
			c-0.30994,0.10082-0.57812,0.27312-0.80457,0.51692c-0.24379,0.22644-0.41609,0.49463-0.51692,0.80457
			c-0.15652,0.29794-0.22829,0.619-0.21532,0.9632c0.02977,0.22153,0.05954,0.44307,0.08931,0.6646
			c0.11877,0.42351,0.33308,0.79123,0.64293,1.10316c0.16866,0.1303,0.33731,0.2606,0.50597,0.39091
			C183.68396,74.15412,184.10455,74.2679,184.55582,74.26929L184.55582,74.26929z"/>
	</g>
</g>
<g>
	<g>
		<path d="M179.09708,87.01208c2.19193,0.70956,4.73094,1.22666,6.83374-0.04545c0.87968-0.53217,1.70479-1.34879,2.12036-2.29999
			c0.29567-0.67677,0.48824-1.26173,0.50261-2.01817c0.01451-0.76315-0.2068-1.41512-0.52792-2.0913
			c-0.25548-0.53798-0.93953-0.99619-1.49408-1.1489c-0.59842-0.16479-1.39529-0.09039-1.92639,0.25202
			c-0.53381,0.34415-1.00371,0.85662-1.1489,1.49407c-0.15657,0.68736-0.05006,1.29029,0.25201,1.9264
			c0.0116,0.02441,0.02319,0.04883,0.03477,0.07323c-0.084-0.19907-0.16801-0.39813-0.25201-0.5972
			c0.06165,0.14671,0.10484,0.29338,0.13213,0.45029c-0.02977-0.22153-0.05954-0.44307-0.08931-0.6646
			c0.02333,0.18085,0.02301,0.35471,0.00139,0.53571c0.02975-0.22153,0.05952-0.44307,0.08929-0.6646
			c-0.0289,0.18246-0.07658,0.3543-0.14297,0.52664c0.08401-0.19907,0.16801-0.39813,0.25203-0.5972
			c-0.0954,0.2256-0.21635,0.43283-0.36186,0.62962c0.13029-0.16866,0.2606-0.33732,0.3909-0.50597
			c-0.17229,0.22004-0.36632,0.4134-0.58615,0.58592c0.16866-0.1303,0.33731-0.2606,0.50597-0.39091
			c-0.20161,0.14966-0.41405,0.27468-0.64395,0.37561c0.19907-0.08401,0.39813-0.16801,0.5972-0.25202
			c-0.27766,0.11207-0.56519,0.17798-0.86105,0.2208c0.22153-0.02977,0.44305-0.05953,0.6646-0.0893
			c-0.44998,0.05276-0.89525,0.03963-1.34421-0.01682c0.22153,0.02977,0.44305,0.05953,0.6646,0.0893
			c-0.79857-0.11402-1.56808-0.3508-2.33359-0.5986c-1.24481-0.40297-2.78459,0.4698-3.07529,1.7461
			C177.03888,85.30702,177.76425,86.58061,179.09708,87.01208L179.09708,87.01208z"/>
	</g>
</g>
<g>
	<g>
		<path d="M171.45711,76.90795c1.2695,0.50444,2.539,1.00889,3.80852,1.51333c0.33229,0.10419,0.6646,0.11907,0.99689,0.04465
			c0.3327-0.01509,0.64255-0.11398,0.9295-0.29667c0.51859-0.30347,1.01315-0.89809,1.1489-1.49408
			c0.14577-0.63998,0.11423-1.35833-0.25201-1.9264c-0.13031-0.16866-0.2606-0.33731-0.39091-0.50597
			c-0.31194-0.30984-0.67966-0.52415-1.10316-0.64293c-1.2695-0.50445-2.539-1.0089-3.8085-1.51334
			c-0.33231-0.10419-0.66461-0.11907-0.9969-0.04465c-0.3327,0.01509-0.64255,0.11398-0.9295,0.29667
			c-0.51859,0.30347-1.01315,0.89809-1.1489,1.49408c-0.14577,0.63998-0.11423,1.35833,0.25201,1.9264
			c0.13031,0.16866,0.26062,0.33731,0.39091,0.50597C170.66588,76.57486,171.0336,76.78917,171.45711,76.90795L171.45711,76.90795z"
			/>
	</g>
</g>
<g>
</g>
<g>
</g>
<g>
</g>
<g>
</g>
<g>
</g>
<g>
</g>
</svg>
